<?xml version="1.0" encoding="utf-8"?>
<!-- Generator: Adobe Illustrator 22.0.1, SVG Export Plug-In . SVG Version: 6.00 Build 0)  -->
<svg version="1.1" id="Logo" xmlns="http://www.w3.org/2000/svg" xmlns:xlink="http://www.w3.org/1999/xlink" x="0px" y="0px"
	 viewBox="0 0 357 103.3" style="enable-background:new 0 0 357 103.3;" xml:space="preserve">
<g>
	<polygon points="273,34.5 248.8,34.5 236.4,68.8 260.6,68.8 	"/>
	<polygon points="268.6,50.5 282.9,68.8 310.8,68.8 294.8,50.7 322.6,34.5 294.2,34.5 	"/>
	<path d="M241.1,41.1l2.4-6.6h-61.9l-8.5,23.6c-0.5,1.5-0.6,3.2,0.5,4.5c0.4,0.4,3.1,3.6,3.7,4.2c1,1.1,2.2,2,4.2,2h49.6l2.4-6.5
		l-34.7,0c-2.1,0-3.1-1.6-2.6-3.2l1.6-4.3h38.4l2.4-6.6h-38.4l2.6-7.1H241.1z"/>
	<path d="M170,34.5h-61.6L96,68.8h23.6l10-27.7h17.6c1.9,0,2.6,1.4,2.2,2.7c-0.4,1.4-1,3.1-1.5,4.1c-0.6,1.4-2,2.5-4.1,2.5
		c-2.1,0-16.5,0-16.5,0l14.3,18.3h27.1l-12.2-13.7c0,0,4.9,0,7.3,0c3.4,0,5.4-1.8,6.3-4.1c1-2.6,3.3-8.9,4-11
		C175.4,36.6,173.4,34.5,170,34.5"/>
	<polygon points="104.1,34.5 36.9,34.5 34.5,41.1 57.7,41.1 47.7,68.8 70.5,68.8 80.5,41.1 101.8,41.1 	"/>
</g>
</svg>
